<?xml version="1.0" encoding="utf-8"?>
<svg xmlns="http://www.w3.org/2000/svg" xmlns:xlink="http://www.w3.org/1999/xlink" width="517px" height="80px" viewBox="0 0 517 80" version="1.1">
    
    <title>Artboard</title>
    <desc>Created with Sketch.</desc>
    <defs>
        <linearGradient x1="49.9546425%" y1="41.3638924%" x2="47.0593521%" y2="125.336236%" id="linearGradient-1">
            <stop stop-color="#296194" offset="0%"/>
            <stop stop-color="#296194" offset="13.25%"/>
            <stop stop-color="#FAFAFA" stop-opacity="0.08259737" offset="100%"/>
        </linearGradient>
        <linearGradient x1="57.5048053%" y1="44.5232348%" x2="83.8984697%" y2="109.602973%" id="linearGradient-2">
            <stop stop-color="#296194" offset="0%"/>
            <stop stop-color="#296194" offset="13.25%"/>
            <stop stop-color="#FAFAFA" stop-opacity="0.08259737" offset="100%"/>
        </linearGradient>
        <linearGradient x1="49.6394849%" y1="53.9994186%" x2="48.3403173%" y2="96.5694186%" id="linearGradient-3">
            <stop stop-color="#8B8A89" offset="0%"/>
            <stop stop-color="#B8B8B8" offset="100%"/>
        </linearGradient>
    </defs>
    <g id="Artboard" stroke="none" stroke-width="1" fill="none" fill-rule="evenodd">
        <g id="1">
            <path d="M8.61666667,3.42857143 C8.6685743,3.42857143 8.72048193,3.48051948 8.77238956,3.48051948 C8.77238956,3.37662338 8.77238956,3.27272727 8.61666667,3.42857143 M54.7106426,67.2207792 C51.8557229,68.2597403 48.896988,68.6753247 45.938253,68.7792208 C44.952008,68.8311688 44.536747,68.987013 44.7443775,70.0779221 C44.9001004,70.7532468 45.0558233,71.4805195 44.1733936,72 C43.6543173,72.2597403 44.0176707,72.7272727 44.4329317,72.9350649 C45.2634538,73.3506494 46.0939759,73.2467532 46.924498,73.1428571 C49.72751,72.7272727 52.4267068,71.7922078 55.073996,70.7532468 C57.4098394,69.8181818 58.1884538,68.3636364 57.6174699,65.6103896 C56.6831325,66.3896104 55.7487952,66.8571429 54.7106426,67.2207792 M18.1676707,30.8571429 C18.2714859,30.9090909 18.3233936,30.961039 18.4272088,30.961039 C18.3233936,30.961039 18.2714859,30.961039 18.1676707,30.8571429 M8.82429719,3.53246753 C8.92811245,3.58441558 8.98002008,3.63636364 9.08383534,3.68831169 L9.08383534,3.68831169 C10.5891566,4.31168831 11.7830321,5.35064935 12.9769076,6.38961039 C18.8943775,11.3766234 22.8912651,17.5064935 24.0332329,25.3506494 C24.2927711,27.2727273 24.2927711,29.1948052 24.1370482,31.1168831 C24.0851406,31.6363636 24.3446787,32.0519481 24.7080321,32.4675325 C25.9538153,33.8181818 27.1995984,35.2727273 28.4453815,36.6233766 C29.8987952,38.025974 31.3003012,39.4285714 32.4422691,41.0909091 C33.6880522,42.961039 33.2727912,44.4675325 31.3003012,45.5064935 C30.1583333,46.0779221 28.8606426,46.4935065 28.5491968,47.9480519 C28.6011044,48.1038961 28.653012,48.2077922 28.7049197,48.3636364 C28.7049197,48.3636364 28.7049197,48.3636364 28.653012,48.3636364 C28.8087349,48.8311688 29.1201807,49.2467532 29.3278112,49.6623377 C29.9507028,50.8051948 29.6911647,51.4285714 28.3934739,51.7922078 C27.3034137,52.1038961 26.1614458,52.3116883 25.0713855,52.6233766 C24.7599398,52.7272727 24.2408635,52.7272727 24.2408635,53.1948052 C24.2408635,53.6103896 24.7080321,53.7662338 25.0194779,53.8701299 C25.7980924,54.1818182 26.5767068,54.2857143 27.4072289,54.3896104 C28.7049197,54.5454545 29.5873494,54.961039 28.5491968,56.5714286 C27.7705823,57.7142857 27.7705823,58.9090909 28.4453815,60.2077922 C29.6911647,62.4935065 29.0163655,65.9220779 26.9400602,67.5844156 C24.3965863,69.6623377 21.3340361,70.7012987 18.0638554,70.2337662 C14.9493976,69.8181818 13.1326305,67.6883117 12.1463855,64.8311688 C10.5891566,60.4675325 10.7448795,56.0519481 11.7830321,51.6363636 C12.3540161,49.2467532 12.9769076,46.9090909 13.7555221,44.5714286 C13.7036145,44.3636364 13.7555221,44.2077922 13.911245,44.1038961 C13.911245,43.8961039 13.9631526,43.6883117 14.1188755,43.5324675 C14.1188755,43.5324675 14.1188755,43.4285714 14.1188755,43.4285714 C14.1188755,43.2207792 14.1707831,43.012987 14.326506,42.8571429 C14.326506,42.8571429 14.326506,42.7532468 14.326506,42.7532468 C14.326506,42.4935065 14.326506,42.2337662 14.5341365,42.0779221 C14.5341365,41.8181818 14.5341365,41.5584416 14.7417671,41.4025974 C14.7417671,41.4025974 14.7417671,41.4025974 14.7417671,41.4025974 C15.1051205,39.7402597 15.6241968,38.1298701 16.298996,36.5194805 C16.8699799,34.5454545 17.4409639,32.6233766 18.0638554,30.6493506 L18.0638554,30.6493506 C18.4791165,28.3116883 19.0501004,26.0779221 19.3096386,23.6883117 C19.6210843,20.6233766 18.9981928,17.7662338 17.700502,14.961039 C15.8837349,10.9090909 13.0807229,7.58441558 9.91435743,4.57142857 C9.60291165,4.25974026 9.29146586,3.94805195 8.98002008,3.63636364 C8.87620482,3.74025974 8.82429719,3.63636364 8.82429719,3.53246753 M51.2328313,73.2987013 C49.5717871,73.6103896 47.8588353,73.8181818 46.1977912,73.9220779 C45.8344378,73.9220779 45.4710843,73.8701299 45.3672691,74.4415584 C45.1077309,76 45.938253,77.8181818 47.2878514,78.4935065 C49.5717871,79.6363636 53.9320281,78.8051948 55.5930723,76.8831169 C56.9945783,75.3246753 56.9945783,73.4025974 56.8388554,71.2727273 C55.1259036,72.4675325 53.2053213,72.9350649 51.2328313,73.2987013 M57.9808233,59.2727273 C53.8801205,61.7142857 49.4679719,62.7012987 44.7962851,62.8051948 C44.1214859,62.8051948 43.8619478,62.961039 44.0176707,63.6883117 C44.2253012,64.8311688 44.3810241,66.0779221 42.8237952,66.4935065 C42.6161647,66.5454545 42.3566265,66.8051948 42.4085341,67.1168831 C42.4604418,67.4285714 42.7718876,67.5844156 43.0314257,67.6883117 C43.3428715,67.7402597 43.7062249,67.7922078 44.0176707,67.7922078 C47.2878514,67.7922078 50.3504016,66.9090909 53.4129518,66.025974 C57.5136546,64.8311688 58.2403614,63.7922078 58.0327309,59.5324675 C58.0327309,59.4285714 58.0327309,59.3766234 57.9808233,59.2727273 M50.4023092,56.2077922 C48.2221888,56.6753247 45.9901606,56.8831169 43.7062249,57.038961 C43.3947791,57.038961 42.8237952,56.9350649 42.9795181,57.5064935 C43.2909639,58.7012987 42.6680723,59.3246753 41.7337349,59.7922078 C41.3184739,60 40.7993976,60.3116883 41.0070281,60.8831169 C41.162751,61.4025974 41.7337349,61.4025974 42.2009036,61.4545455 C43.8100402,61.6623377 45.3672691,61.4545455 46.924498,61.1948052 C50.0389558,60.7272727 53.101506,60.1038961 56.0083333,58.961039 C57.5655622,58.3896104 58.5518072,57.2987013 58.6556225,55.5844156 C58.7075301,54.7012987 58.6556225,53.7662338 58.6556225,52.7272727 C56.060241,54.5454545 53.3091365,55.5324675 50.4023092,56.2077922 M63.638755,24.5714286 C63.5868474,26.3376623 63.223494,28 62.7044177,29.6623377 C62.3410643,31.3246753 61.821988,32.987013 60.9914659,34.4415584 C60.6800201,35.7402597 60.0052209,36.8831169 59.2785141,37.974026 C59.1746988,38.4415584 58.7075301,38.8051948 58.7594378,39.3766234 C61.4067269,39.6363636 61.8738956,40.1038961 61.8738956,42.7532468 C61.8738956,43.8441558 61.8738956,44.8831169 61.8738956,45.974026 C61.8738956,47.4285714 61.3548193,48.2597403 59.9533133,48.6753247 C59.3823293,48.8311688 59.1227912,49.0909091 59.0189759,49.7142857 C58.9151606,50.3896104 58.3960843,50.8571429 57.877008,51.2727273 C56.5793173,52.4155844 55.0220884,53.0909091 53.3610442,53.6103896 C49.8832329,54.7532468 46.3535141,55.3246753 42.6680723,55.3246753 C42.4604418,55.3246753 42.3047189,55.3246753 42.0970884,55.3246753 C41.4741968,55.1688312 40.5917671,55.3766234 40.4360442,54.5454545 C40.2803213,53.8181818 41.0070281,53.5064935 41.5261044,53.1948052 C42.0451807,52.8311688 42.4085341,50.9090909 41.9932731,50.4415584 C41.6818273,50.1298701 41.4222892,50.3896104 41.2146586,50.5454545 C40.3322289,51.1688312 39.6055221,51.9480519 38.9307229,52.7792208 C36.9063253,55.4805195 35.6086345,58.5454545 34.5704819,61.7142857 C33.2727912,65.5584416 32.0789157,69.4545455 30.0545181,72.987013 C28.3934739,75.8961039 26.2133534,78.2337662 22.8393574,79.1168831 C16.714257,80.7272727 11.938755,78.2337662 9.70672691,72.2597403 C8.6685743,69.4545455 8.09759036,66.5974026 7.83805221,63.6363636 C7.21516064,56.1558442 6.69608434,48.6753247 6.38463855,41.1948052 C6.17700803,40.7792208 5.91746988,40.3636364 5.70983936,40 C4.77550201,38.7532468 4.30833333,37.2987013 3.78925703,35.8441558 C3.21827309,34.4415584 2.80301205,32.987013 2.49156627,31.4805195 C2.07630522,29.9220779 1.76485944,28.3636364 1.55722892,26.7532468 C0.570983936,21.1428571 0.311445783,15.5324675 2.387751,10.025974 C3.16636546,7.94805195 4.2564257,6.07792208 5.70983936,4.41558442 C6.17700803,3.84415584 6.59226908,3.79220779 7.21516064,4.15584416 C11.9906627,7.01298701 14.89749,11.2727273 16.6623494,16.4155844 C17.8043173,19.7922078 17.7524096,23.2207792 17.1295181,26.7012987 C17.0257028,28.3116883 16.6623494,29.8181818 16.1951807,31.3766234 C16.0394578,32.9350649 15.4684739,34.3376623 15.0532129,35.7922078 C14.6898594,36.987013 14.326506,38.1818182 13.9631526,39.3246753 C13.4959839,40.8831169 13.0288153,42.4935065 12.3540161,44 C12.3021084,44.1038961 12.3021084,44.2077922 12.2502008,44.2597403 C12.2502008,44.2597403 12.2502008,44.2597403 12.2502008,44.2597403 C10.6410643,48.7272727 9.60291165,53.3506494 9.65481928,58.1298701 C9.70672691,61.1428571 9.81054217,64.1038961 10.7967871,66.961039 C13.0288153,73.7142857 19.672992,74.2337662 23.7217871,72.2597403 C26.6805221,70.8051948 28.7049197,68.3636364 30.3659639,65.6623377 C32.2865462,62.5974026 33.4804217,59.1168831 34.8300201,55.7922078 C35.971988,52.9350649 37.2177711,50.1818182 38.4116466,47.3246753 L38.4116466,47.3246753 C38.6192771,46.7532468 38.8269076,46.1818182 38.8269076,45.5064935 C38.9307229,43.9480519 38.775,42.3896104 39.190261,40.8311688 C39.5017068,39.8441558 40.2284137,39.3766234 41.2146586,39.3246753 C42.6680723,39.3246753 44.1733936,39.3246753 45.6268072,39.3246753 C46.5611446,38.5974026 47.4954819,37.8701299 48.3779116,37.1428571 C49.5717871,35.9480519 50.713755,34.7532468 51.9076305,33.5584416 C52.9457831,32.1038961 53.9839357,30.5974026 55.0220884,29.1428571 C55.8526104,27.5844156 56.4235944,25.9220779 56.9426707,24.2597403 C57.2022088,22.1818182 57.4098394,20.0519481 57.2022088,17.974026 C56.9426707,15.7402597 56.3716867,13.5584416 55.1259036,11.6883117 C52.7900602,8.25974026 49.2084337,7.48051948 45.8344378,9.87012987 C44.1214859,11.0649351 42.6161647,12.4675325 41.0070281,13.7662338 C40.2803213,14.3376623 39.5017068,14.8571429 38.775,15.3766234 C36.1277108,17.1948052 33.3766064,17.1428571 30.625502,15.5324675 C27.9782129,13.974026 25.85,11.8441558 23.87751,9.50649351 C22.5279116,7.8961039 21.1264056,6.33766234 19.4134538,5.09090909 C16.1951807,2.75324675 13.8074297,2.02597403 9.70672691,2.28571429 C10.95251,1.2987013 12.3021084,1.14285714 13.5997992,1.03896104 C17.1814257,0.675324675 20.1920683,1.97402597 22.6836345,4.46753247 C24.1889558,5.97402597 25.6942771,7.42857143 27.1995984,8.88311688 C27.5629518,9.24675325 27.9782129,9.61038961 28.3415663,9.92207792 C32.597992,13.5584416 35.5048193,13.5064935 39.5536145,9.66233766 C41.2146586,8.1038961 42.7718876,6.44155844 44.5886546,5.03896104 C48.3779116,2.23376623 52.8419679,1.76623377 56.8388554,4.88311688 C59.6418675,7.06493506 61.4067269,9.92207792 62.4967871,13.2467532 C63.638755,16.987013 64.1578313,20.7272727 63.638755,24.5714286" id="Fill-1" fill-opacity="0.8" fill="#FFFFFF"/>
            <g id="Group" transform="translate(74.227912, 0.000000)" fill="#FFFFFF">
                <path d="M403.581827,38.5454545 C413.080924,38.4935065 418.115964,34.2857143 419.102209,25.038961 C419.828916,18.2857143 418.375502,12.1558442 412.146586,8.1038961 C407.68253,5.19480519 402.699398,4.51948052 397.456727,4.83116883 C395.63996,4.93506494 394.965161,5.66233766 395.017068,7.48051948 C395.120884,15.1168831 395.017068,22.7532468 395.068976,30.3896104 C395.068976,37.4545455 396.262851,38.5974026 403.581827,38.5454545 M382.351606,2.23376623 C382.559237,1.71428571 382.974498,1.61038961 383.441667,1.61038961 C392.110241,1.92207792 400.778815,1.09090909 409.395482,2.02597403 C418.115964,3.01298701 424.34488,8.20779221 426.057831,15.7922078 C428.030321,24.4155844 424.812048,33.3506494 418.012149,37.6623377 C412.769478,40.987013 406.955823,41.9220779 400.882631,41.6103896 C395.743775,41.3506494 390.656827,40.8831169 385.517972,41.1948052 C384.998896,41.2467532 384.479819,41.1948052 383.960743,41.1428571 C383.545482,41.0909091 383.182129,40.9350649 383.182129,40.5194805 C383.182129,40.0519481 383.59739,39.8961039 384.012651,39.8961039 C387.127108,40.2077922 387.490462,38.0779221 387.490462,35.8441558 C387.594277,25.8701299 387.594277,15.8961039 387.594277,5.97402597 C387.594277,3.8961039 386.400402,3.01298701 384.479819,2.80519481 C383.80502,2.80519481 382.870683,3.22077922 382.351606,2.23376623" id="Fill-1_1_"/>
                <path d="M71.0096386,20.7792208 C71.1653614,25.038961 70.802008,30.1818182 71.2172691,35.3766234 C71.372992,37.4025974 72.2554217,38.5454545 74.1240964,38.961039 C79.52249,40.1038961 84.713253,39.9480519 89.488755,36.7792208 C91.2017068,35.6363636 92.5513052,34.1818182 93.3299197,32.3116883 C95.9253012,25.8181818 96.0291165,19.3766234 92.6551205,13.1428571 C89.2811245,6.75324675 80.7682731,4.15584416 73.1378514,4.88311688 C71.4768072,5.03896104 70.9577309,5.81818182 71.0096386,7.42857143 C71.0615462,11.5844156 71.0096386,15.7402597 71.0096386,20.7792208 M71.6325301,1.61038961 C76.3561245,1.71428571 81.7545181,1.24675325 87.0490964,2.38961039 C96.2886546,4.31168831 101.894679,10.2857143 102.569478,18.9090909 C103.296185,28.8311688 98.2611446,36.8831169 89.4368474,39.9480519 C84.8689759,41.5584416 80.1453815,41.974026 75.3698795,41.5584416 C70.5424699,41.1428571 65.7150602,41.038961 60.8876506,41.2467532 C60.264759,41.2467532 59.2266064,41.5064935 59.1746988,40.6753247 C59.1227912,39.7402597 60.1609438,40 60.7838353,39.9480519 C62.3410643,39.8961039 63.0677711,39.0649351 63.2754016,37.5584416 C63.5868474,35.2207792 63.5868474,32.8831169 63.5868474,30.4935065 C63.5868474,22.8051948 63.5868474,15.1168831 63.5868474,7.42857143 C63.5868474,3.68831169 63.223494,3.27272727 59.5899598,2.85714286 C59.0708835,2.80519481 58.2922691,2.90909091 58.2922691,2.23376623 C58.2922691,1.35064935 59.1746988,1.61038961 59.6937751,1.61038961 C63.4830321,1.61038961 67.2722892,1.61038961 71.6325301,1.61038961" id="Fill-3"/>
                <path d="M255.333635,29.6623377 C255.333635,25.5584416 255.385542,21.8181818 255.333635,18.0779221 C255.281727,14.1298701 255.229819,10.1818182 255.022189,6.28571429 C254.866466,3.37662338 254.191667,2.85714286 251.284839,2.64935065 C250.713855,2.5974026 249.831426,2.80519481 249.779518,2.07792208 C249.72761,1.19480519 250.661948,1.45454545 251.181024,1.45454545 C255.022189,1.4025974 258.915261,1.4025974 262.756426,1.45454545 C263.275502,1.45454545 264.157932,1.09090909 264.157932,2.02597403 C264.157932,2.7012987 263.431225,2.64935065 262.912149,2.64935065 C260.887751,2.5974026 260.057229,3.79220779 260.005321,5.61038961 C259.849598,10.2857143 259.745783,14.961039 259.641968,19.6363636 C259.486245,25.7142857 259.38243,31.8441558 259.226707,37.9220779 C259.226707,38.8571429 259.693876,40.0519481 258.603815,40.5714286 C257.358032,41.1428571 256.52751,40.0519481 255.696988,39.3246753 C251.232932,35.1688312 246.820783,31.0649351 242.356727,26.9090909 C237.47741,22.3376623 232.805723,17.6103896 227.978313,12.5194805 C227.978313,15.3246753 227.926406,17.8181818 227.978313,20.2597403 C228.082129,24.9350649 228.134036,29.6103896 228.445482,34.2857143 C228.653112,37.6103896 228.964558,39.0649351 232.65,38.9090909 C233.065261,38.9090909 233.688153,38.961039 233.688153,39.4805195 C233.74006,40.0519481 233.169076,40.1558442 232.701908,40.1558442 C228.393574,40.1558442 224.085241,40.1558442 219.776908,40.1558442 C219.309739,40.1558442 218.686847,40.1038961 218.686847,39.5844156 C218.686847,38.9090909 219.361647,38.961039 219.880723,38.8571429 C223.047088,38.4415584 223.254719,38.2857143 223.306627,35.1168831 C223.514257,24.6233766 223.721888,14.1818182 223.87761,3.68831169 C223.87761,3.01298701 223.87761,2.33766234 223.981426,1.71428571 C224.189056,0.467532468 224.915763,0.25974026 225.902008,0.987012987 C226.421084,1.4025974 226.888253,1.87012987 227.407329,2.38961039 C236.698795,11.3766234 245.886446,20.4155844 255.333635,29.6623377" id="Fill-5"/>
                <path d="M27.7186747,24.8311688 C25.9019076,20.1558442 24.1889558,15.8441558 22.3202811,11.1168831 C20.5554217,15.5324675 18.9981928,19.4805195 17.3890562,23.4285714 C17.0776104,24.2597403 16.8180723,24.8831169 18.1157631,24.8831169 C21.2302209,24.7792208 24.3446787,24.8311688 27.7186747,24.8311688 M31.611747,40.1038961 C32.597992,39.3766234 32.9094378,38.6493506 32.4422691,37.5584416 C31.2483936,34.7532468 30.1064257,31.8961039 29.0163655,29.038961 C28.653012,28.0519481 28.0820281,27.6883117 27.0438755,27.6883117 C23.5660643,27.7402597 20.1401606,27.7402597 16.6623494,27.6883117 C15.8318273,27.6883117 15.2608434,27.8441558 14.89749,28.7272727 C13.911245,31.2207792 12.7692771,33.6623377 11.8868474,36.2077922 C11.0563253,38.4935065 11.523494,39.0649351 13.911245,39.3766234 C14.4303213,39.4285714 15.1570281,39.4285714 15.1570281,40.0519481 C15.1570281,40.6753247 14.4303213,40.6753247 13.911245,40.6753247 C10.0700803,40.6753247 6.22891566,40.6753247 2.43965863,40.6753247 C1.97248996,40.6753247 1.45341365,40.6753247 1.34959839,40.1558442 C1.24578313,39.5844156 1.76485944,39.3766234 2.23202811,39.4285714 C5.39839357,39.6363636 6.64417671,37.4545455 7.73423695,35.012987 C12.2502008,24.5714286 16.714257,14.1298701 21.2302209,3.68831169 C21.3859438,3.32467532 21.5416667,3.01298701 21.6973896,2.64935065 C22.1126506,1.81818182 22.2683735,0.571428571 23.462249,0.571428571 C24.7080321,0.519480519 24.863755,1.76623377 25.2271084,2.5974026 C29.4835341,12.4155844 33.6361446,22.2337662 37.8925703,32.1038961 C38.4116466,33.2467532 38.9307229,34.4415584 39.5017068,35.5844156 C40.5917671,37.7142857 41.8894578,39.6363636 44.7443775,39.4285714 C45.2115462,39.3766234 45.7306225,39.5844156 45.6787149,40.1558442 C45.6268072,40.5194805 45.2115462,40.7272727 44.7962851,40.7272727 C40.4360442,40.6233766 36.0758032,40.8831169 31.611747,40.1038961" id="Fill-7"/>
                <path d="M182.04006,11.0649351 C180.06757,15.9480519 178.354618,20.2077922 176.537851,24.7792208 C179.911847,24.7792208 183.026305,24.7792208 186.140763,24.7792208 C187.127008,24.7792208 187.282731,24.3116883 186.971285,23.4805195 C185.362149,19.5844156 183.80492,15.6363636 182.04006,11.0649351 M191.279618,40.2597403 C193.407831,39.1688312 193.044478,38.0779221 192.473494,36.8311688 C191.383434,34.3896104 190.449096,31.8441558 189.514759,29.3506494 C189.099498,28.1558442 188.476606,27.5844156 187.0751,27.6363636 C183.856827,27.7402597 180.638554,27.7402597 177.420281,27.6363636 C176.226406,27.5844156 175.499699,27.8441558 175.084438,29.0909091 C174.202008,31.5324675 173.111948,33.9220779 172.229518,36.3636364 C171.606627,38.025974 171.762349,39.3766234 174.098193,39.3246753 C174.669177,39.3246753 175.551606,39.2207792 175.499699,40 C175.447791,40.7792208 174.565361,40.5714286 174.046285,40.5714286 C170.464659,40.5714286 166.883032,40.5714286 163.249498,40.5714286 C162.678514,40.5714286 161.847992,40.8311688 161.744177,40 C161.640361,39.1168831 162.522791,39.2727273 163.041867,39.2727273 C165.896787,39.2727273 167.038755,37.3506494 167.973092,35.1168831 C172.592871,24.4155844 177.212651,13.7142857 181.83243,3.06493506 C181.988153,2.7012987 182.091968,2.38961039 182.247691,2.02597403 C182.559137,1.35064935 182.766767,0.519480519 183.649197,0.467532468 C184.687349,0.415584416 184.998795,1.2987013 185.310241,2.02597403 C187.646084,7.37662338 189.878112,12.7272727 192.162048,18.0779221 C194.394076,23.2727273 196.574197,28.5194805 198.91004,33.7142857 C200.155823,36.5194805 201.297791,39.5324675 205.294679,39.3246753 C205.70994,39.3246753 206.073293,39.5324675 206.021386,40 C205.969478,40.2077922 205.606124,40.4675325 205.346586,40.5194805 C200.986345,40.6753247 196.522289,40.7792208 191.279618,40.2597403" id="Fill-9"/>
                <path d="M361.536647,26.2337662 C361.9,20.987013 358.370281,21.4545455 355.255823,21.4025974 C349.649799,21.2467532 349.649799,21.2467532 349.649799,26.7532468 C349.649799,29.1428571 349.701707,31.5324675 349.753614,33.9220779 C349.753614,35.8441558 350.843675,36.9350649 352.712349,37.2987013 C355.203916,37.7662338 357.695482,37.7142857 360.187048,37.4025974 C362.419076,37.1428571 363.768675,35.9480519 364.132028,33.7142857 C364.183936,33.2467532 364.183936,32.5194805 364.96255,32.5714286 C365.689257,32.6753247 365.533534,33.4025974 365.481627,33.8701299 C365.325904,35.6363636 365.118273,37.4025974 364.858735,39.1688312 C364.703012,40.3116883 363.924398,40.6753247 362.730522,40.7272727 C354.89247,40.8311688 347.054418,40.3116883 339.216365,40.6233766 C338.697289,40.6233766 337.814859,40.8831169 337.866767,39.9480519 C337.918675,39.2727273 338.645382,39.3246753 339.164458,39.3766234 C341.96747,39.4805195 342.071285,37.4545455 342.123193,35.5844156 C342.227008,27.2207792 342.227008,18.9090909 342.278916,10.5454545 C342.278916,9.19480519 342.330823,7.84415584 342.227008,6.54545455 C342.071285,4 341.396486,3.32467532 338.749197,3.11688312 C338.126305,3.06493506 337.036245,3.37662338 337.036245,2.54545455 C337.036245,1.4025974 338.178213,1.92207792 338.853012,1.92207792 C345.393373,1.92207792 351.933735,1.97402597 358.474096,2.02597403 C358.993173,2.02597403 359.564157,2.07792208 360.083233,2.02597403 C361.432831,1.92207792 362.730522,1.81818182 364.08012,1.76623377 C363.976305,3.16883117 363.924398,4.57142857 363.820582,5.92207792 C363.820582,6.23376623 363.768675,6.54545455 363.716767,6.80519481 C363.457229,7.68831169 364.08012,9.19480519 362.938153,9.35064935 C361.744277,9.50649351 362.419076,7.94805195 362.055723,7.22077922 C361.484739,6.23376623 360.758032,5.61038961 359.616064,5.45454545 C356.761145,5.03896104 353.854317,5.09090909 350.94749,5.03896104 C349.85743,4.98701299 349.701707,5.55844156 349.701707,6.44155844 C349.701707,10.025974 349.701707,13.6103896 349.701707,17.1948052 C349.701707,18.0779221 349.909337,18.5974026 350.94749,18.5454545 C353.906225,18.4935065 356.86496,18.4415584 359.823695,18.3896104 C360.187048,18.3896104 360.550402,18.2857143 360.913755,18.1298701 C363.353414,17.2987013 363.353414,17.2467532 363.093876,19.8441558 C362.886245,21.8701299 362.678614,23.8961039 362.470984,25.9220779 C362.107631,25.8701299 361.848092,26.025974 361.536647,26.2337662" id="Fill-11"/>
                <path d="M306.099297,40.6753247 C301.42761,40.7272727 296.911647,40.2077922 292.603313,38.2337662 C284.453815,34.5454545 280.19739,26.9090909 281.183635,17.974026 C282.117972,9.66233766 288.087349,3.11688312 296.548293,1.2987013 C303.296285,-0.155844156 309.992369,0.727272727 316.688454,1.87012987 C317.467068,2.02597403 317.830422,2.33766234 317.778514,3.22077922 C317.622791,5.76623377 317.570884,8.25974026 317.467068,10.8051948 C317.415161,11.3246753 317.415161,12.2077922 316.688454,12.2077922 C316.11747,12.2077922 316.013655,11.5324675 316.013655,11.012987 C315.754116,7.27272727 313.418273,5.35064935 310.096185,4.36363636 C306.25502,3.22077922 302.31004,3.16883117 298.416968,4.1038961 C295.458233,4.83116883 293.226205,6.5974026 291.617068,9.19480519 C287.256827,16.1558442 288.658333,27.3246753 294.627711,32.8831169 C299.45512,37.3506494 305.216867,38.2857143 311.445783,36.7792208 C314.093072,36.1558442 315.702209,34.1818182 316.532731,31.6363636 C316.688454,31.1688312 316.584639,30.1818182 317.467068,30.4415584 C318.141867,30.5974026 318.038052,31.4285714 317.986145,32 C317.674699,33.9220779 317.311345,35.7922078 316.9999,37.7142857 C316.792269,38.9090909 316.11747,39.4805195 314.975502,39.7922078 C312.016767,40.5714286 309.058032,40.5714286 306.099297,40.6753247" id="Fill-13"/>
                <path d="M146.171888,1.81818182 L159.615964,1.81818182 C159.200703,2.28571429 159.096888,2.5974026 158.941165,2.5974026 C155.411446,2.49350649 154.425201,5.19480519 153.283233,7.79220779 C148.663454,18.1818182 144.043675,28.5194805 139.423896,38.9090909 C139.32008,39.1688312 139.164357,39.4805195 139.008635,39.7402597 C138.541466,40.5714286 138.385743,41.7662338 137.13996,41.7142857 C135.946084,41.6623377 135.738454,40.4155844 135.3751,39.5844156 C132.208735,32.0519481 129.042369,24.5194805 125.927912,16.987013 C124.474498,13.5584416 123.021084,10.1818182 121.619578,6.7012987 C120.685241,4.25974026 119.128012,2.80519481 116.480723,2.80519481 C115.961647,2.80519481 115.338755,2.90909091 115.286847,2.18181818 C115.23494,1.71428571 115.702108,1.61038961 116.065462,1.61038961 C121.256225,1.61038961 126.498896,1.66233766 131.689659,1.71428571 C131.845382,1.71428571 132.001104,1.97402597 132.156827,2.12987013 C131.949197,2.85714286 131.43012,2.85714286 130.911044,2.85714286 C128.938554,2.80519481 128.575201,3.94805195 129.146185,5.50649351 C132.31255,13.9220779 135.478916,22.3376623 138.645281,30.7012987 C139.527711,30.8051948 139.475803,30.1298701 139.631526,29.8181818 C142.745984,22.1298701 145.860442,14.3896104 148.9749,6.64935065 C150.220683,3.48051948 150.168775,3.48051948 147.00241,2.85714286 C146.639056,2.7012987 146.275703,2.54545455 146.171888,1.81818182" id="Fill-15"/>
                <path d="M75.2141566,65.6623377 C75.162249,68.5714286 76.0965863,71.7402597 78.7438755,74.2857143 C82.325502,77.6623377 87.9315261,77.2987013 90.4230924,73.6623377 C93.1741968,69.5584416 92.4993976,61.5584416 88.9696787,58.0779221 C86.685743,55.8441558 83.9346386,55.012987 80.7682731,55.7922078 C77.7576305,56.5714286 76.3042169,58.7012987 75.57751,61.5064935 C75.2660643,62.6493506 75.2660643,63.8441558 75.2141566,65.6623377 M83.727008,54.3896104 C91.5131526,54.3896104 96.236747,58.7012987 96.2886546,65.8701299 C96.3405622,73.4545455 91.0459839,78.7012987 83.4674699,78.7012987 C76.148494,78.7012987 70.9577309,73.7662338 70.9577309,66.6493506 C70.9577309,59.2727273 76.0446787,54.3896104 83.727008,54.3896104" id="Fill-17"/>
                <path d="M338.074398,62.7012987 C338.074398,63.5324675 338.126305,64.4155844 338.074398,65.2467532 C337.918675,66.4935065 338.489659,67.012987 339.943072,67.0649351 C342.434639,67.1688312 343.836145,66.2337662 344.251406,63.9480519 C344.718574,61.4545455 343.524699,59.3766234 341.188855,58.8051948 C338.697289,58.2337662 338.074398,58.7012987 338.02249,60.9350649 C338.074398,61.5584416 338.074398,62.1298701 338.074398,62.7012987 M340.617871,77.4545455 L332.156928,77.4545455 C334.596586,76.6233766 334.129418,74.7012987 334.129418,72.9350649 C334.129418,69.1428571 334.129418,65.4025974 334.129418,61.6103896 C334.129418,58.8571429 334.129418,58.8571429 331.689759,57.8701299 C335.998092,57.7662338 340.306426,56.9350649 344.510944,58.2857143 C348.09257,59.4285714 348.923092,63.4805195 345.91245,66.1818182 C343.784237,68.1038961 344.355221,69.1428571 345.964357,70.7012987 C348.352108,73.038961 349.961245,76.2077922 353.854317,76.987013 C350.739859,78.1818182 347.625402,77.6103896 345.652912,75.4285714 C344.303313,73.9220779 343.005622,72.3116883 341.915562,70.6493506 C341.08504,69.4025974 339.99498,69.1948052 338.749197,69.4545455 C337.243876,69.7662338 338.178213,71.0649351 337.970582,71.8961039 C337.866767,72.3116883 338.074398,72.7792208 338.02249,73.1948052 C338.02249,75.1168831 337.866767,77.038961 340.617871,77.4545455" id="Fill-19"/>
                <path d="M111.134237,62.7532468 C111.134237,63.5844156 111.238052,64.4675325 111.134237,65.2987013 C110.978514,66.5974026 111.601406,67.0649351 113.002912,67.0649351 C115.390663,67.1168831 116.740261,66.2857143 117.259337,64.1558442 C117.830321,61.9220779 116.740261,59.7402597 114.612048,59.012987 C112.120482,58.1298701 111.082329,58.7012987 111.082329,61.038961 C111.134237,61.6103896 111.134237,62.1818182 111.134237,62.7532468 M125.876004,77.2467532 C121.827209,78.2337662 118.660843,77.1948052 116.532631,73.5584416 C115.857831,72.4155844 114.975402,71.3766234 114.248695,70.2857143 C113.521988,69.1428571 112.431928,69.4025974 111.445683,69.5584416 C110.355622,69.7142857 110.926606,70.7532468 110.822791,71.4285714 C110.718976,72.1558442 110.822791,72.9350649 110.822791,73.6623377 C110.926606,76.4155844 110.926606,76.4155844 113.366265,77.4545455 L104.749598,77.4545455 C107.396888,76.7272727 107.189257,74.961039 107.189257,73.1948052 C107.189257,69.2467532 107.137349,65.2987013 107.189257,61.2987013 C107.241165,59.4805195 107.033534,58.0779221 104.749598,58.2337662 C105.009137,57.2987013 105.632028,57.6103896 106.047289,57.6103896 C109.057932,57.6103896 112.120482,57.6103896 115.131124,57.7662338 C117.259337,57.8701299 118.972289,58.7532468 119.802811,60.9350649 C120.633333,63.1168831 119.802811,65.0909091 118.245582,66.3896104 C116.376908,67.9480519 116.792169,69.038961 118.193675,70.4415584 C119.17992,71.4285714 120.010442,72.5714286 120.944779,73.6623377 C122.294378,75.2727273 123.747791,76.7272727 125.876004,77.2467532" id="Fill-21"/>
                <path d="M256.787048,62.7012987 C256.787048,63.4805195 256.838956,64.2597403 256.787048,65.038961 C256.631325,66.4935065 257.202309,67.0649351 258.603815,67.0649351 C260.524398,67.0649351 261.510643,66.0779221 261.873996,64.2597403 C262.393072,61.8181818 261.56255,59.8441558 259.797691,59.0649351 C257.669478,58.1298701 256.838956,58.7012987 256.787048,61.038961 C256.787048,61.6103896 256.787048,62.1818182 256.787048,62.7012987 M258.967169,77.5064935 L250.869578,77.5064935 C252.893976,76.9350649 252.842068,75.3246753 252.842068,73.7662338 C252.842068,69.5584416 252.842068,65.3506494 252.893976,61.1948052 C252.893976,59.4285714 252.842068,57.8701299 250.506225,58.2857143 C250.454317,57.5064935 250.869578,57.5584416 251.181024,57.5584416 C254.451205,57.6103896 257.669478,57.6103896 260.939659,57.7142857 C263.015964,57.8181818 264.728916,58.6493506 265.455622,60.7272727 C266.182329,62.8051948 265.767068,64.8831169 264.054116,66.2337662 C261.977811,67.8961039 262.65261,69.0909091 264.106024,70.6493506 C266.38996,73.0909091 268.051004,76.2597403 271.580723,77.2467532 C268.051004,77.974026 264.884639,77.6623377 262.756426,74.2337662 C261.925904,72.8831169 260.887751,71.7402597 260.057229,70.3896104 C259.38243,69.2467532 258.344277,69.2987013 257.358032,69.4545455 C256.112249,69.6623377 256.735141,70.7532468 256.631325,71.4805195 C256.52751,72.2077922 256.579418,72.987013 256.631325,73.7142857 C256.631325,75.4285714 256.52751,77.2467532 259.538153,76.7272727 C259.226707,77.038961 259.122892,77.2987013 258.967169,77.5064935" id="Fill-23"/>
                <path d="M442.51255,68.3636364 C434.103514,68.6753247 425.694478,68.987013 417.285442,69.2467532 C404.931426,69.6103896 392.629317,69.8181818 380.275301,70.2337662 C377.991365,70.3376623 378.250904,69.1428571 378.147088,67.6883117 C377.991365,65.7142857 379.185241,66.025974 380.431024,66.025974 C390.085843,66.2857143 399.688755,66.4415584 409.343574,66.7012987 C420.3999,67.012987 431.404317,67.4805195 442.460643,67.8441558 C442.460643,68.0519481 442.51255,68.2077922 442.51255,68.3636364" id="Fill-25"/>
                <path d="M291.668976,68.2597403 L300.026104,68.2597403 C298.313153,68.8831169 297.794076,70.0779221 298.001707,71.7402597 C298.053614,72.2077922 298.001707,72.6753247 298.001707,73.0909091 C298.001707,77.8701299 298.001707,77.8701299 293.226205,78.4935065 C290.630823,78.8571429 288.035442,78.5974026 285.491968,77.8701299 C280.19739,76.3636364 277.394378,72.4675325 277.809639,67.1688312 C278.2249,62.0779221 282.014157,58.2337662 287.308735,57.6623377 C290.423193,57.3506494 293.589558,57.6103896 296.652108,58.1298701 C297.326908,58.2337662 297.794076,58.3896104 297.742169,59.2207792 C297.638353,60.6233766 297.586446,62.0779221 297.326908,63.5844156 C295.458233,59.1168831 291.720884,58.7012987 287.827811,59.2727273 C283.363755,59.8961039 281.235542,64.0519481 282.221787,69.4025974 C283.104217,74.0779221 287.153012,77.2467532 291.980422,76.987013 C293.381928,76.9350649 294.160542,76.4155844 294.004819,74.9090909 C293.952912,73.9220779 293.901004,72.9350649 294.004819,71.9480519 C294.316265,70.025974 293.952912,68.6233766 291.668976,68.2597403" id="Fill-28"/>
                <path d="M0.259538153,67.8961039 C5.86556225,67.6883117 11.4196787,67.4805195 17.0257028,67.3246753 C32.1827309,66.9090909 47.339759,66.4935065 62.4967871,66.025974 C63.8982932,65.974026 64.6769076,65.9220779 64.6769076,67.7922078 C64.625,69.5064935 64.4692771,70.3376623 62.3929719,70.2337662 C50.9732932,69.8181818 39.5536145,69.5584416 28.1339357,69.2467532 C18.8943775,68.987013 9.65481928,68.6753247 0.363353414,68.3636364 C0.311445783,68.2077922 0.311445783,68.0519481 0.259538153,67.8961039" id="Fill-30"/>
                <path d="M234.882028,57.7142857 L241.941466,57.7142857 C240.436145,58.2337662 239.968976,59.2207792 240.020884,60.7792208 C240.072791,63.6883117 239.968976,66.5974026 239.917068,69.4545455 C239.761345,77.038961 232.805723,80.987013 226.317269,77.2467532 C223.66998,75.6883117 222.943273,73.0909091 222.839458,70.2337662 C222.735643,67.2727273 222.78755,64.2597403 222.839458,61.2987013 C222.839458,59.5324675 222.839458,57.9220779 219.776908,58.4415584 C221.749398,57.4545455 226.109639,57.3506494 229.276004,57.974026 C226.940161,58.2857143 226.680622,59.5844156 226.73253,61.1948052 C226.836345,64.5714286 226.680622,67.8961039 226.836345,71.2727273 C227.043976,75.2727273 230.106526,77.5064935 233.53243,76.4155844 C235.71255,75.7402597 236.906426,74.1818182 237.010241,71.8961039 C237.114056,67.9480519 237.010241,63.9480519 237.114056,60 C237.217871,58.2857143 235.868273,58.4935065 234.882028,57.7142857" id="Fill-32"/>
                <path d="M209.291566,60.1038961 C207.941968,56.6233766 206.748092,55.6883117 204.360341,55.9480519 C201.713052,56.2597403 200.622992,58.8051948 202.128313,61.038961 C203.166466,62.5454545 204.671787,63.4285714 206.021386,64.5194805 C208.253414,66.3896104 210.225904,68.4155844 210.225904,71.6883117 C210.225904,74.9090909 208.668675,77.2987013 205.658032,78.1818182 C204.61988,78.4935065 203.529819,78.7012987 202.491667,78.5974026 C197.300904,78.2337662 196.885643,78.025974 198.235241,71.9480519 C198.91004,72.2597403 198.70241,72.987013 198.858133,73.5064935 C199.325301,75.4285714 200.415361,76.6753247 202.387851,76.8831169 C204.152711,77.0909091 205.761847,76.7792208 206.644277,74.961039 C207.526707,73.0909091 206.903815,71.4285714 205.554217,70.0779221 C204.412249,68.9350649 203.166466,67.9480519 201.920683,66.9090909 C200.726807,65.8181818 199.584839,64.6753247 198.91004,63.1168831 C197.197088,59.2727273 199.065763,55.4285714 203.062651,54.5454545 C203.893173,54.3376623 204.775602,54.2857143 205.658032,54.3896104 C210.173996,54.7532468 210.173996,54.0779221 209.291566,60.1038961" id="Fill-35"/>
                <path d="M321.879217,61.5584416 C320.996787,59.8441558 317.259438,58.5974026 315.546486,59.3246753 C315.079317,59.5324675 315.079317,59.8961039 315.079317,60.2077922 C315.079317,61.8181818 315.079317,63.4805195 315.079317,65.0909091 C315.079317,66.0779221 315.754116,66.0779221 316.480823,66.0779221 C317.415161,66.0779221 318.29759,66.025974 319.231928,65.974026 C320.114357,65.9220779 321.048695,65.974026 322.190663,65.0909091 C322.03494,66.961039 321.879217,68.3116883 321.775402,69.7142857 C320.581526,66.6493506 317.934237,68 315.909839,67.7402597 C315.131225,67.6363636 315.079317,68.2077922 315.079317,68.7792208 C315.079317,69.8181818 315.02741,70.8571429 315.079317,71.8961039 C315.183133,73.4025974 314.35261,75.3246753 316.896084,75.8441558 C319.958635,76.4155844 321.619679,75.8441558 322.761647,73.5584416 C323.851707,76.1038961 322.917369,77.6103896 320.27008,77.6103896 C316.532731,77.6103896 312.795382,77.6103896 308.850402,77.4545455 C311.393876,76.7792208 311.030522,74.9090909 311.030522,73.2467532 C311.030522,69.4025974 310.978614,65.5064935 311.08243,61.6623377 C311.134337,59.7922078 311.08243,58.1818182 308.435141,58.1298701 C310.303815,57.5064935 312.120582,57.7662338 313.885442,57.7142857 C316.013655,57.6623377 318.193775,57.8701299 320.321988,57.6623377 C322.24257,57.4545455 322.761647,57.974026 322.346386,59.7402597 C322.24257,60.2077922 322.398293,60.8311688 321.879217,61.5584416" id="Fill-37"/>
                <path d="M139.11245,62.8571429 C138.178112,65.1428571 137.399498,67.1168831 136.620884,69.038961 C136.361345,69.6623377 136.361345,70.1298701 137.243775,70.1298701 C138.697189,70.1298701 140.513956,70.5454545 141.448293,69.8701299 C142.382631,69.1948052 140.981124,67.6363636 140.617771,66.4935065 C140.20251,65.3506494 139.683434,64.3116883 139.11245,62.8571429 M135.686546,78.5454545 L129.042369,78.5454545 C131.482028,77.974026 132.001104,75.8441558 132.779719,73.9220779 C134.752209,69.038961 136.828514,64.1558442 138.852912,59.3246753 C139.11245,58.6493506 139.216265,57.5584416 140.046787,57.5584416 C141.033032,57.5584416 141.08494,58.7012987 141.396386,59.4285714 C143.368876,64.2077922 145.341365,69.038961 147.313855,73.8701299 C148.09247,75.7922078 148.767269,77.9220779 151.258835,78.3896104 C149.18253,78.961039 147.106225,78.5974026 145.133735,78.6493506 C144.666566,78.6493506 144.35512,78.4415584 144.614659,77.974026 C144.926104,77.3506494 144.562751,76.9350649 144.407028,76.4675325 C142.849799,71.7922078 141.707831,71.0649351 136.984237,71.8961039 C135.115562,72.2597403 135.3751,74.2337662 134.700301,75.4805195 C133.973594,76.7272727 133.454518,78.1818182 135.686546,78.5454545" id="Fill-39"/>
                <path d="M362.626707,77.6103896 C364.235843,77.1428571 364.547289,76.1038961 364.703012,74.6493506 C365.014458,71.3766234 364.75492,68.3116883 362.626707,65.6103896 C361.380924,64 360.342771,62.1818182 359.200803,60.4675325 C358.422189,59.2207792 357.435944,58.2337662 355.98253,57.6103896 L363.145783,57.6103896 C362.470984,59.012987 363.664859,61.6623377 367.506024,66.961039 C368.751807,63.7922078 371.814357,61.5584416 371.502912,57.5584416 L377.057028,57.5584416 C371.97008,62.2337662 367.869378,67.2727273 368.596084,74.9090909 C368.803715,76.987013 370.205221,76.9350649 371.451004,77.6623377 L362.626707,77.6623377 L362.626707,77.6103896 Z" id="Fill-41"/>
                <path d="M158.577811,58.5974026 L167.038755,58.5974026 C164.754819,58.9090909 164.651004,60.5194805 164.651004,62.2337662 C164.702912,66.2857143 164.754819,70.3896104 164.806727,74.4415584 C164.806727,76.1558442 165.637249,76.8831169 167.350201,76.8831169 C169.634137,76.8311688 172.229518,77.6103896 172.956225,74.0779221 C173.890562,77.7662338 173.215763,78.7012987 169.841767,78.7012987 C166.208233,78.7012987 162.522791,78.7012987 158.629719,78.4415584 C161.069378,78.0779221 160.861747,76.3636364 160.913655,74.8051948 C160.965562,70.3376623 160.913655,65.8701299 160.965562,61.4545455 C160.965562,59.7922078 160.290763,58.9090909 158.577811,58.5974026" id="Fill-43"/>
            </g>
            <g id="Group-47" transform="translate(0.000000, 0.519481)" fill="#296194">
                <path d="M57.9808233,38.3376623 C57.877008,37.7662338 58.3441767,37.4545455 58.447992,36.9350649 C59.2266064,35.8441558 59.849498,34.7012987 60.1609438,33.4025974 C61.0433735,31.8961039 61.5105422,30.2857143 61.8738956,28.6233766 C62.3929719,26.961039 62.7563253,25.2987013 62.8082329,23.5324675 C63.3273092,19.6883117 62.8082329,15.9480519 61.6143574,12.3116883 C60.5242972,8.98701299 58.7594378,6.18181818 56.0083333,4 C52.0114458,0.883116883 47.5473896,1.35064935 43.8100402,4.15584416 C41.9932731,5.50649351 40.4360442,7.16883117 38.775,8.77922078 C34.7262048,12.6233766 31.8193775,12.6753247 27.6148594,9.03896104 C27.1995984,8.72727273 26.836245,8.36363636 26.4728916,8 C24.9675703,6.54545455 23.462249,5.09090909 21.9569277,3.58441558 C19.4653614,1.03896104 16.5066265,-0.207792208 12.925,0.155844156 C11.6273092,0.311688312 10.2777108,0.415584416 9.03192771,1.4025974 C13.1326305,1.14285714 15.5203815,1.87012987 18.7386546,4.20779221 C20.4516064,5.45454545 21.8531124,7.01298701 23.2027108,8.62337662 C25.1752008,10.961039 27.251506,13.0909091 29.8987952,14.6493506 C32.6498996,16.2077922 35.3490964,16.2597403 37.9963855,14.4935065 C38.775,13.974026 39.5017068,13.4545455 40.2284137,12.8831169 C41.8375502,11.5844156 43.3428715,10.1818182 45.0558233,8.98701299 C48.4298193,6.5974026 52.0114458,7.37662338 54.3472892,10.8051948 C55.6449799,12.7272727 56.1640562,14.8571429 56.4235944,17.0909091 C56.6831325,19.2207792 56.4235944,21.2987013 56.1640562,23.3766234 C55.6968876,25.038961 55.073996,26.7012987 54.2434739,28.2597403 C53.2053213,29.7142857 52.1671687,31.2207792 51.1809237,32.6753247 C49.9870482,33.8701299 48.8450803,35.0649351 47.6512048,36.2597403 C46.7168675,36.987013 45.8344378,37.7142857 44.9001004,38.4415584 C43.4466867,38.4415584 41.9413655,38.4415584 40.4879518,38.4415584 C39.5017068,38.4935065 38.775,39.012987 38.4635542,39.9480519 C38.0482932,41.4545455 38.1521084,43.0649351 38.1002008,44.5714286 C38.1002008,45.1948052 37.8406627,45.7662338 37.6849398,46.3896104 L37.6849398,46.3896104 C36.4910643,49.1948052 35.2452811,52 34.1033133,54.8051948 C32.7537149,58.1298701 31.611747,61.5584416 29.6911647,64.6753247 C27.9782129,67.3766234 26.0057229,69.8181818 23.046988,71.2727273 C19.0501004,73.2467532 12.4059237,72.7792208 10.1738956,66.025974 C9.23955823,63.1168831 9.08383534,60.2077922 9.08383534,57.1948052 C9.03192771,52.3116883 10.0700803,47.6363636 11.7830321,43.0649351 C12.4059237,41.5584416 12.925,40 13.340261,38.3896104 C13.7036145,37.1948052 14.0669679,36.0519481 14.4303213,34.8571429 C14.8455823,33.4025974 15.4165663,31.9480519 15.5722892,30.4415584 C16.0913655,28.9350649 16.4028112,27.3766234 16.5066265,25.8181818 C17.1295181,22.3376623 17.1295181,18.961039 16.0394578,15.5844156 C14.326506,10.3896104 11.4196787,6.18181818 6.64417671,3.32467532 C6.02128514,2.96103896 5.65793173,3.01298701 5.13885542,3.58441558 C3.68544177,5.24675325 2.64728916,7.11688312 1.8686747,9.19480519 C-0.207630522,14.6493506 0.0519076305,20.2597403 1.03815261,25.8701299 C1.24578313,27.4805195 1.50532129,29.038961 1.97248996,30.5974026 C2.28393574,32.1038961 2.69919679,33.5584416 3.27018072,34.961039 C3.78925703,36.4155844 4.2564257,37.8181818 5.19076305,39.0649351 C5.39839357,39.4805195 5.65793173,39.8441558 5.86556225,40.2597403 C6.22891566,47.7402597 6.69608434,55.2207792 7.3189759,62.6493506 C7.57851406,65.6103896 8.14949799,68.4675325 9.1876506,71.2727273 C11.4196787,77.2467532 16.1951807,79.6883117 22.2683735,78.1298701 C25.6423695,77.2467532 27.82249,74.9090909 29.4835341,72 C31.5079317,68.4675325 32.6498996,64.5714286 33.9475904,60.7272727 C34.985743,57.5584416 36.2834337,54.4935065 38.3078313,51.8441558 C38.9307229,50.961039 39.6574297,50.1818182 40.5917671,49.6103896 C40.7993976,49.4545455 41.0589357,49.1948052 41.3703815,49.5064935 C41.7856426,49.974026 41.4222892,51.8961039 40.9032129,52.2597403 C40.3841365,52.6233766 39.6574297,52.8831169 39.8131526,53.6103896 C39.9688755,54.4415584 40.8513052,54.2857143 41.4741968,54.3896104 C41.6299197,54.4415584 41.8375502,54.3896104 42.0451807,54.3896104 C45.6787149,54.3896104 49.2084337,53.8181818 52.686245,52.6753247 C54.2953815,52.1558442 55.8526104,51.4805195 57.1503012,50.3376623 C57.6693775,49.9220779 58.1884538,49.4545455 58.2922691,48.7792208 C58.3960843,48.2077922 58.6556225,47.9480519 59.2266064,47.7402597 C60.6281124,47.3246753 61.1471888,46.4935065 61.1471888,45.038961 C61.1471888,43.9480519 61.1471888,42.9090909 61.1471888,41.8181818 C61.0952811,39.0649351 60.6281124,38.5454545 57.9808233,38.3376623" id="Fill-45"/>
            </g>
            <g id="Group-51" transform="translate(0.000000, 3.116883)" fill="url(#linearGradient-1)">
                <path d="M5.13885542,0.987012987 C3.68544177,2.64935065 2.64728916,4.51948052 1.8686747,6.5974026 C-0.207630522,12.1038961 0.0519076305,17.7142857 1.03815261,23.3766234 C1.24578313,24.987013 1.50532129,26.5454545 1.97248996,28.1038961 C2.28393574,29.6103896 2.69919679,31.0649351 3.27018072,32.4675325 C3.78925703,33.9220779 4.2564257,35.3766234 5.19076305,36.6233766 C5.39839357,37.038961 5.65793173,37.4545455 5.86556225,37.8181818 C5.86556225,37.8181818 5.86556225,37.8181818 5.86556225,37.8181818 C7.73423695,39.012987 9.65481928,40.0519481 11.6792169,40.987013 C11.7311245,40.8831169 11.7311245,40.7792208 11.7830321,40.7272727 C12.4059237,39.2207792 12.925,37.6103896 13.340261,36.0519481 C13.7036145,34.8571429 14.0669679,33.6623377 14.4303213,32.4675325 C14.8455823,31.012987 15.4165663,29.5584416 15.5722892,28 C16.0913655,26.4935065 16.4028112,24.9350649 16.5066265,23.3246753 C17.1295181,19.8441558 17.1295181,16.4155844 16.0394578,12.987013 C14.326506,7.79220779 11.4196787,3.53246753 6.64417671,0.675324675 C6.38463855,0.519480519 6.17700803,0.415584416 5.96937751,0.415584416 C5.65793173,0.519480519 5.39839357,0.675324675 5.13885542,0.987012987" id="Fill-49"/>
            </g>
            <g id="Group-54" transform="translate(8.824297, 0.519481)" fill="url(#linearGradient-2)">
                <path d="M0.259538153,1.35064935 C4.36024096,1.09090909 6.74799197,1.81818182 9.96626506,4.15584416 C11.6792169,5.4025974 13.0807229,6.96103896 14.4303213,8.57142857 C16.4028112,10.9090909 18.4791165,13.038961 21.1264056,14.5974026 C23.87751,16.1558442 26.5767068,16.2077922 29.223996,14.4415584 C30.0026104,13.9220779 30.7293173,13.4025974 31.4560241,12.8311688 C33.0651606,11.5324675 34.5704819,10.1298701 36.2834337,8.93506494 C39.6574297,6.54545455 43.2390562,7.32467532 45.522992,10.7532468 C46.8206827,12.6753247 47.339759,14.8051948 47.5992972,17.038961 C47.8588353,19.1168831 47.5992972,21.2467532 47.339759,23.3246753 C46.8725904,24.987013 46.2496988,26.6493506 45.4191767,28.2077922 C44.3810241,29.6623377 43.3428715,31.1688312 42.3566265,32.6233766 C41.162751,33.8181818 40.0207831,35.012987 38.8269076,36.2077922 C37.8925703,36.9350649 37.0101406,37.6623377 36.0758032,38.3896104 C34.6223896,38.3896104 33.1689759,38.3896104 31.6636546,38.3896104 C30.6774096,38.4415584 29.9507028,38.961039 29.639257,39.8961039 C29.223996,41.4025974 29.3278112,42.961039 29.2759036,44.5194805 C29.2759036,45.1428571 29.0163655,45.7142857 28.8606426,46.3376623 C28.8087349,46.4935065 28.7049197,46.6493506 28.653012,46.8051948 C36.3353414,45.7142857 43.4466867,42.7532468 49.5198795,38.3896104 C49.3641566,38.3896104 49.312249,38.3376623 49.1046185,38.3376623 C49.0008032,37.7662338 49.4679719,37.4545455 49.5717871,36.9350649 C50.3504016,35.8441558 50.9732932,34.7012987 51.284739,33.4025974 C52.1671687,31.8961039 52.6343373,30.2857143 52.9976908,28.6233766 C53.5167671,26.961039 53.8801205,25.2987013 53.9320281,23.5324675 C54.4511044,19.6883117 53.9320281,16 52.7900602,12.3116883 C51.7,8.98701299 49.9351406,6.18181818 47.1840361,4 C43.1871486,0.883116883 38.7230924,1.35064935 34.985743,4.15584416 C33.1689759,5.50649351 31.611747,7.16883117 29.9507028,8.77922078 C25.9019076,12.6233766 22.9950803,12.6753247 18.7905622,9.03896104 C18.3753012,8.72727273 18.0119478,8.36363636 17.6485944,8 C16.1432731,6.54545455 14.6379518,5.09090909 13.1326305,3.58441558 C10.9006024,1.35064935 8.35712851,0.103896104 5.29457831,0.103896104 C4.9312249,0.103896104 4.51596386,0.103896104 4.10070281,0.155844156 C2.85491968,0.207792208 1.50532129,0.363636364 0.259538153,1.35064935 Z" id="Fill-52"/>
            </g>
            <g id="Group-63" transform="translate(7.786145, 2.597403)">
                <path d="M1.34959839,1.66233766 C4.56787149,4.67532468 7.37088353,8.05194805 9.1876506,12.1038961 C10.4334337,14.8571429 11.1082329,17.7662338 10.7967871,20.8311688 C10.537249,23.2207792 9.96626506,25.4545455 9.55100402,27.7922078 C9.70672691,28 9.8624498,28.1038961 10.121988,28.0519481 C9.8624498,28.1038961 9.70672691,28 9.55100402,27.7922078 C8.98002008,29.7662338 8.40903614,31.6883117 7.78614458,33.6623377 C7.11134538,35.2727273 6.59226908,36.8831169 6.22891566,38.5454545 C6.22891566,38.5454545 6.22891566,38.5454545 6.22891566,38.5454545 C6.02128514,38.7012987 6.02128514,38.961039 6.02128514,39.2207792 C6.02128514,39.2207792 6.02128514,39.2207792 6.02128514,39.2207792 C5.76174699,39.3766234 5.81365462,39.6883117 5.81365462,39.8961039 C5.81365462,39.8961039 5.81365462,40 5.81365462,40 C5.6060241,40.1558442 5.6060241,40.3636364 5.6060241,40.5714286 C5.6060241,40.5714286 5.6060241,40.6753247 5.6060241,40.6753247 C5.39839357,40.8311688 5.39839357,41.038961 5.39839357,41.2467532 C5.24267068,41.3506494 5.19076305,41.5064935 5.24267068,41.7142857 C4.46405622,44.0519481 3.84116466,46.3896104 3.27018072,48.7792208 C2.23202811,53.2467532 2.07630522,57.6623377 3.63353414,62.025974 C4.61977912,64.8831169 6.48845382,67.012987 9.60291165,67.4285714 C12.925,67.8961039 15.9875502,66.8571429 18.5310241,64.7792208 C20.6073293,63.1168831 21.2821285,59.6363636 20.0363454,57.3506494 C19.3096386,56.0519481 19.3615462,54.8571429 20.1401606,53.7142857 C21.1783133,52.1558442 20.2958835,51.6883117 18.9462851,51.5324675 C18.1157631,51.4285714 17.3371486,51.3246753 16.5585341,51.012987 C16.2470884,50.8571429 15.7799197,50.7532468 15.7799197,50.3376623 C15.7799197,49.8701299 16.298996,49.8701299 16.6104418,49.7662338 C17.700502,49.4545455 18.8424699,49.2467532 19.9844378,48.9350649 C21.2821285,48.5714286 21.5416667,47.9480519 20.9187751,46.8051948 C20.6073293,46.2337662 20.2439759,45.7142857 20.1401606,45.0909091 C20.4516064,43.5844156 21.7492972,43.2207792 22.8912651,42.5974026 C24.9156627,41.5584416 25.3309237,40.0519481 24.0332329,38.1298701 C22.8912651,36.4675325 21.489759,35.0649351 20.0363454,33.6623377 C18.7905622,32.2597403 17.5447791,30.8571429 16.298996,29.4545455 C15.9356426,29.038961 15.6761044,28.6233766 15.728012,28.1038961 C15.8837349,26.1818182 15.8837349,24.2597403 15.6241968,22.3376623 C14.5341365,14.4935065 10.4853414,8.36363636 4.51596386,3.32467532 C3.32208835,2.28571429 2.12821285,1.24675325 0.622891566,0.623376623 L0.622891566,0.623376623 C0.519076305,0.571428571 0.467168675,0.519480519 0.363353414,0.467532468 C0.363353414,0.571428571 0.415261044,0.675324675 0.519076305,0.675324675 C0.726706827,1.03896104 1.03815261,1.35064935 1.34959839,1.66233766" id="Fill-55" fill="#8B8A89"/>
                <path d="M35.1933735,53.6103896 C34.8819277,53.6103896 34.3109438,53.5064935 34.4666667,54.0779221 C34.7781124,55.2727273 34.1552209,55.8961039 33.2208835,56.3636364 C32.8056225,56.5714286 32.3384538,56.8831169 32.4941767,57.4545455 C32.6498996,57.974026 33.2208835,57.974026 33.6880522,58.025974 C35.2452811,58.2337662 36.8544177,58.025974 38.359739,57.7662338 C41.4222892,57.2987013 44.4848394,56.6753247 47.3916667,55.5324675 C48.896988,54.961039 49.8832329,53.8701299 50.0389558,52.1558442 C50.0908635,51.2207792 50.0389558,50.3376623 50.0389558,49.2467532 C47.3916667,51.012987 44.6924699,52.0519481 41.7856426,52.6753247 C39.6574297,53.2467532 37.4254016,53.4545455 35.1933735,53.6103896" id="Fill-57" fill="#296194"/>
                <path d="M49.4679719,56.1038961 C45.3672691,58.4935065 41.0070281,59.4805195 36.387249,59.5324675 C35.7124498,59.5324675 35.4529116,59.6883117 35.6086345,60.4155844 C35.8162651,61.5584416 35.971988,62.7532468 34.414759,63.1688312 C34.2071285,63.2207792 33.9475904,63.4805195 33.999498,63.7402597 C34.0514056,64.0519481 34.3628514,64.2077922 34.6223896,64.2597403 C34.9338353,64.3116883 35.2971888,64.3636364 35.6086345,64.3636364 C38.8269076,64.3636364 41.8894578,63.4805195 44.952008,62.6493506 C49.0527108,61.5064935 49.7794177,60.4675325 49.5198795,56.2597403 C49.5198795,56.2597403 49.5198795,56.2077922 49.4679719,56.1038961" id="Fill-59" fill="#296194"/>
                <path d="M42.9276104,70.0779221 C41.2665663,70.3896104 39.6574297,70.5974026 37.9963855,70.7012987 C37.6330321,70.7012987 37.2696787,70.6493506 37.2177711,71.2207792 C36.9582329,72.7792208 37.788755,74.5974026 39.1383534,75.3246753 C41.3703815,76.4675325 45.6268072,75.6363636 47.2878514,73.7142857 C48.6893574,72.1038961 48.6893574,70.1818182 48.5336345,68.0519481 C46.7168675,69.2987013 44.8481928,69.7142857 42.9276104,70.0779221" id="Fill-61" fill="#296194"/>
            </g>
            <g id="Group-66" transform="translate(7.786145, 3.116883)" fill="url(#linearGradient-3)">
                <path d="M0.415261044,0.207792208 C0.726706827,0.519480519 1.03815261,0.831168831 1.34959839,1.14285714 C4.56787149,4.15584416 7.37088353,7.48051948 9.1876506,11.4805195 C10.4334337,14.2337662 11.1082329,17.0909091 10.7967871,20.1558442 C10.537249,22.4935065 9.96626506,24.7792208 9.55100402,27.1168831 C9.55100402,27.1168831 9.55100402,27.1168831 9.55100402,27.1168831 C8.98002008,29.038961 8.35712851,31.012987 7.78614458,32.9350649 C7.11134538,34.4935065 6.59226908,36.1038961 6.22891566,37.8181818 C6.22891566,37.8181818 6.22891566,37.8181818 6.22891566,37.8181818 C6.02128514,37.974026 6.02128514,38.2337662 6.02128514,38.4935065 C5.76174699,38.6493506 5.81365462,38.9090909 5.81365462,39.1688312 C5.81365462,39.1688312 5.81365462,39.2727273 5.81365462,39.2727273 C5.6060241,39.4285714 5.6060241,39.6363636 5.6060241,39.8441558 C5.6060241,39.8441558 5.6060241,39.9480519 5.6060241,39.9480519 C5.39839357,40.1038961 5.39839357,40.3116883 5.39839357,40.5194805 C5.24267068,40.6233766 5.19076305,40.7792208 5.24267068,40.987013 C5.19076305,41.0909091 5.19076305,41.2467532 5.13885542,41.3506494 C9.8624498,43.2727273 14.9493976,44.4155844 20.2439759,44.7272727 C20.1920683,44.5714286 20.1401606,44.4675325 20.088253,44.3116883 C20.3996988,42.8051948 21.6973896,42.4415584 22.8393574,41.8701299 C24.863755,40.8311688 25.2790161,39.3246753 23.9813253,37.4545455 C22.8393574,35.7922078 21.4378514,34.3896104 19.9844378,32.987013 C18.7386546,31.5844156 17.4928715,30.1818182 16.2470884,28.8311688 C15.8837349,28.4155844 15.6241968,28 15.6761044,27.4805195 C15.8318273,25.5584416 15.8318273,23.6363636 15.5722892,21.7662338 C14.4822289,13.974026 10.4334337,7.84415584 4.46405622,2.90909091 C3.27018072,1.92207792 2.07630522,0.831168831 0.570983936,0.207792208 L0.570983936,0.207792208 C0.467168675,0.155844156 0.415261044,0.103896104 0.311445783,0.0519480519 C0.259538153,0.103896104 0.311445783,0.155844156 0.415261044,0.207792208" id="Fill-64"/>
            </g>
            <g id="Group-73" transform="translate(7.786145, 2.077922)">
                <path d="M46.5092369,64.5194805 C43.6543173,65.5584416 40.6436747,65.974026 37.6330321,66.1298701 C36.6467871,66.1818182 36.1796185,66.3376623 36.387249,67.4805195 C36.5429719,68.1558442 36.6986948,68.9350649 35.8162651,69.4545455 C35.2971888,69.7662338 35.6605422,70.1818182 36.0758032,70.3896104 C36.9063253,70.8051948 37.7368474,70.7532468 38.6192771,70.5974026 C41.4741968,70.1818182 44.1733936,69.2467532 46.8725904,68.1558442 C49.2603414,67.2207792 49.9870482,65.6623377 49.4679719,62.9090909 C48.5336345,63.6363636 47.5473896,64.1038961 46.5092369,64.5194805" id="Fill-67" fill="#296194"/>
                <path d="M0.311445783,1.09090909 C0.311445783,1.03896104 0.259538153,1.09090909 0.311445783,1.09090909 C0.259538153,1.03896104 0.259538153,1.03896104 0.311445783,1.09090909 C0.259538153,1.03896104 0.259538153,1.03896104 0.311445783,1.09090909 C0.259538153,1.09090909 0.311445783,1.09090909 0.311445783,1.09090909" id="Fill-69" fill="#8E8D8D"/>
                <path d="M0.259538153,0.571428571 C0.311445783,0.571428571 0.363353414,0.623376623 0.415261044,0.623376623 C0.415261044,0.571428571 0.415261044,0.415584416 0.259538153,0.571428571" id="Fill-71" fill="#8E8D8D"/>
            </g>
        </g>
    </g>
</svg>